<?xml version="1.0" standalone="no"?>
<!DOCTYPE svg PUBLIC "-//W3C//DTD SVG 20010904//EN"
 "http://www.w3.org/TR/2001/REC-SVG-20010904/DTD/svg10.dtd">
<svg version="1.0" xmlns="http://www.w3.org/2000/svg"
 width="906.000000pt" height="906.000000pt" viewBox="0 0 906.000000 906.000000"
 preserveAspectRatio="xMidYMid meet">
<metadata>
Created by potrace 1.14, written by Peter Selinger 2001-2017
</metadata>
<g transform="translate(0.000000,906.000000) scale(0.100000,-0.100000)"
fill="#000000" stroke="none">
<path d="M5419 7906 c-2 -2 -18 -6 -34 -9 -17 -2 -51 -13 -75 -24 -59 -26 -83
-36 -92 -37 -4 -1 -13 -7 -20 -13 -6 -7 -17 -13 -23 -13 -13 0 -131 -63 -316
-168 -20 -11 -67 -39 -104 -61 -37 -23 -70 -41 -74 -41 -5 0 -16 -9 -26 -20
-10 -11 -22 -20 -26 -20 -8 0 -124 -71 -146 -90 -7 -5 -15 -10 -18 -10 -4 0
-21 -11 -39 -25 -18 -14 -36 -25 -39 -25 -3 0 -35 -20 -71 -45 -37 -25 -70
-45 -75 -45 -5 0 -11 -3 -13 -7 -1 -5 -68 -51 -148 -105 -80 -53 -207 -139
-284 -192 -76 -53 -142 -96 -147 -96 -5 0 -9 -4 -9 -8 0 -4 -12 -15 -27 -24
-16 -9 -37 -24 -48 -32 -11 -9 -74 -53 -140 -100 -66 -46 -128 -91 -137 -100
-10 -9 -21 -16 -24 -16 -4 0 -45 -29 -89 -63 -10 -8 -106 -77 -140 -101 -11
-8 -102 -75 -203 -150 -100 -75 -186 -136 -191 -136 -5 0 -11 -4 -13 -9 -1 -5
-61 -53 -133 -107 -71 -54 -135 -103 -141 -108 -7 -6 -23 -19 -37 -29 -131
-95 -630 -494 -635 -508 -2 -5 -10 -9 -17 -9 -7 0 -15 -3 -17 -7 -2 -5 -37
-37 -78 -72 -180 -152 -250 -213 -303 -263 -22 -21 -41 -38 -43 -38 -7 0 -220
-217 -244 -249 -14 -18 -30 -38 -36 -45 -6 -6 -14 -22 -18 -33 -6 -20 -5 -21
26 -13 18 5 45 12 61 15 15 3 39 7 55 10 15 3 35 8 44 11 10 3 30 7 45 10 16
2 39 7 53 11 14 3 30 7 35 8 6 2 44 10 85 19 41 9 84 18 95 21 11 2 83 17 160
34 77 17 150 33 163 36 12 2 30 6 40 9 9 3 28 7 42 10 14 3 36 8 50 11 14 4
39 8 55 9 17 2 41 8 53 15 12 6 22 10 22 7 0 -3 14 -1 32 4 17 5 49 12 72 16
22 3 43 7 47 9 3 2 21 7 40 10 19 3 52 11 74 16 22 5 49 11 60 14 53 10 83 17
120 27 22 5 51 12 65 14 26 3 35 5 115 24 28 6 59 13 70 16 11 2 72 15 135 30
63 14 129 28 145 30 17 3 44 9 60 14 17 5 81 23 144 39 129 34 122 42 71 -79
-27 -66 -108 -293 -115 -324 -1 -6 -5 -18 -8 -26 -3 -8 -17 -55 -31 -105 -14
-49 -31 -104 -36 -122 -6 -18 -13 -40 -15 -50 -2 -10 -24 -99 -49 -197 -25
-98 -43 -183 -40 -187 3 -5 0 -9 -5 -9 -6 0 -10 -3 -9 -7 1 -5 -4 -39 -12 -78
-17 -84 -17 -84 -19 -87 -1 -2 -4 -16 -7 -33 -4 -32 -11 -67 -14 -75 -1 -3 -3
-9 -4 -15 -2 -13 -17 -94 -22 -120 -2 -11 -6 -33 -9 -50 -3 -16 -8 -41 -10
-55 -3 -14 -7 -39 -9 -57 -3 -18 -7 -40 -10 -50 -3 -10 -8 -40 -11 -68 -3 -27
-7 -61 -10 -75 -3 -14 -8 -47 -11 -75 -8 -72 -12 -100 -14 -100 -1 0 -4 -28
-16 -150 -7 -82 -10 -111 -18 -175 -18 -172 -26 -664 -12 -825 10 -117 15
-169 21 -200 3 -16 10 -59 16 -95 6 -36 18 -90 26 -120 8 -30 16 -62 18 -71
21 -96 139 -309 171 -309 4 0 64 38 133 83 69 46 189 122 266 168 77 46 142
86 145 89 3 3 28 17 55 30 28 14 52 28 55 31 3 3 37 23 75 44 39 21 84 46 100
55 17 9 75 41 130 70 55 30 123 66 150 82 55 30 776 390 865 431 30 14 108 50
173 81 65 31 120 56 122 56 2 0 38 17 82 37 43 21 81 36 86 35 4 -1 7 3 7 10
0 6 3 9 6 6 3 -3 40 10 82 29 42 19 91 41 108 48 63 29 272 119 354 152 47 19
96 40 110 46 14 6 27 11 30 12 15 5 68 27 85 35 32 15 268 107 415 161 74 27
144 54 155 59 29 13 461 160 485 165 3 1 38 11 79 24 41 12 81 24 90 26 9 2
28 8 44 14 15 6 38 13 50 16 12 2 49 12 82 20 33 9 71 18 85 21 14 3 33 7 42
10 10 3 30 8 45 11 42 8 58 11 58 13 0 1 19 3 43 5 23 2 46 6 51 9 5 3 37 8
72 12 73 6 130 12 144 13 6 1 3 5 -5 10 -8 6 -18 7 -22 5 -4 -3 -8 -1 -8 3 0
5 -10 10 -22 10 -13 1 -32 7 -43 12 -17 8 -147 49 -180 56 -5 1 -30 8 -55 15
-25 7 -48 13 -52 12 -4 -1 -27 4 -50 12 -52 16 -195 47 -288 61 -14 2 -36 6
-50 9 -35 7 -93 15 -148 22 -26 3 -58 7 -72 9 -201 30 -724 36 -998 10 -31 -2
-86 -7 -122 -11 -36 -3 -76 -7 -90 -10 -14 -2 -50 -6 -80 -10 -30 -3 -62 -7
-70 -9 -8 -1 -33 -5 -55 -9 -22 -3 -56 -8 -75 -11 -52 -7 -90 -14 -140 -25
-25 -5 -56 -12 -70 -14 -14 -3 -47 -9 -75 -15 -27 -5 -53 -7 -57 -5 -5 3 -8 1
-8 -3 0 -5 -8 -9 -17 -10 -20 -1 -74 -9 -113 -17 -14 -3 -36 -8 -50 -11 -14
-3 -61 -12 -105 -20 -117 -22 -128 -24 -265 -51 -69 -14 -134 -27 -145 -28
-11 -2 -36 -6 -55 -10 -19 -4 -44 -9 -55 -11 -11 -2 -20 -4 -20 -5 0 -1 -10
-3 -22 -4 -29 -3 -29 0 2 40 14 18 25 35 25 37 0 3 29 49 65 102 36 53 65 99
65 103 0 4 9 18 20 32 11 14 50 72 87 130 37 58 72 110 76 115 5 6 33 48 62
95 30 47 59 92 65 100 64 95 210 322 210 326 0 3 5 10 11 17 6 7 39 57 74 112
36 55 68 105 73 111 5 5 15 21 22 34 7 13 17 29 21 34 5 6 39 58 76 116 37 58
73 111 80 118 7 7 13 19 13 27 0 7 3 15 8 17 4 2 27 35 52 73 25 39 49 75 53
80 5 6 17 24 27 40 11 17 25 39 32 49 133 204 168 260 168 266 0 5 3 10 8 12
4 2 41 55 81 118 67 104 101 150 101 137 0 -3 26 1 57 8 32 7 61 11 65 9 5 -3
8 -1 8 3 0 5 8 9 18 10 22 1 95 14 102 18 3 2 24 6 46 9 22 4 49 8 59 10 17 4
173 37 241 51 22 5 39 8 97 19 12 3 32 7 43 10 12 2 38 7 58 10 19 3 57 11 83
17 27 6 57 13 68 15 11 2 31 7 45 10 14 3 34 6 45 5 16 0 17 2 5 8 -15 8 -58
16 -155 26 -27 3 -62 8 -77 11 -15 2 -53 6 -85 9 -32 2 -68 7 -80 9 -11 3 -56
7 -100 11 -43 3 -96 8 -118 10 -406 43 -980 47 -1140 8 -73 -18 -71 -18 -55 2
14 16 144 105 155 105 2 0 26 13 54 29 27 16 52 27 55 24 3 -4 6 -2 6 3 0 5
37 27 83 49 45 22 84 43 85 48 2 4 8 7 14 7 5 0 92 40 191 89 100 49 205 99
232 111 28 12 87 40 132 61 46 22 84 39 87 39 2 0 48 21 102 46 170 78 303
136 584 253 107 45 203 86 212 91 10 6 23 10 29 10 6 0 41 13 77 29 77 32 103
43 117 47 6 1 60 21 120 44 61 23 115 43 120 45 6 1 17 5 25 8 34 15 267 87
297 93 45 8 42 24 -4 25 -21 1 -60 4 -88 6 -219 17 -522 17 -796 -2 -180 -12
-220 -16 -349 -30 -25 -3 -67 -8 -95 -11 -27 -2 -61 -6 -75 -9 -14 -2 -50 -7
-80 -10 -30 -4 -64 -9 -75 -11 -11 -3 -38 -7 -60 -9 -22 -3 -53 -8 -70 -12
-16 -4 -33 -6 -37 -5 -4 1 -42 -5 -85 -13 -43 -8 -96 -17 -118 -20 -47 -7 -70
-12 -105 -20 -14 -3 -38 -8 -55 -10 -33 -5 -49 -9 -115 -24 -57 -13 -108 -22
-140 -26 -14 -1 -32 -5 -40 -8 -13 -5 -65 -17 -137 -32 -47 -10 -65 -14 -81
-19 -9 -3 -28 -7 -42 -10 -14 -2 -74 -16 -135 -31 -60 -14 -117 -28 -125 -30
-8 -2 -62 -15 -120 -30 -58 -14 -114 -28 -125 -30 -39 -9 -61 -14 -120 -31
-33 -9 -68 -18 -78 -20 -10 -2 -27 -6 -37 -9 -10 -3 -27 -8 -37 -10 -23 -6
-67 -17 -183 -50 -52 -15 -102 -28 -110 -30 -8 -2 -28 -8 -45 -15 -16 -6 -32
-12 -35 -12 -19 -2 -226 -71 -255 -85 -26 -13 -24 -9 15 29 44 41 105 95 215
189 28 23 61 52 75 65 14 12 59 51 100 86 41 35 82 70 90 78 9 8 30 26 46 39
16 13 58 50 94 81 36 31 78 68 94 81 16 13 34 29 40 34 12 11 133 115 231 200
32 28 63 55 69 60 6 6 40 34 76 64 36 30 70 60 75 65 6 6 54 49 108 94 53 46
97 86 97 88 0 5 -5 5 -11 0z"/>
</g>
</svg>
