<svg viewBox="0 0 906 745" xmlns="http://www.w3.org/2000/svg" fill-rule="evenodd" clip-rule="evenodd" stroke-linejoin="round" stroke-miterlimit="1.414"><path d="M299.4 710.5c-32.5-32.9-31.8-138.9-12.4-245.4 18.405-99.997 41.259-152.793 43.882-157.198-12.197 3.078-23.47 6.031-25.919 6.944l-213.597 46.9c18.2-43.6 395.734-321.628 451.934-327.328l-148.5 128.1c15.7-10 123.7-36.5 173.1-47.1 105.572-22.75 188.243-27.081 243.442-20.74l.421-.032-.224.054.161.018-.344.027c-72.817 17.685-292.777 120.312-283.993 126.301 50.8-12.5 185.7 6.6 183.6 7-1.991.553-54.554 11.165-107.459 21.828l-46.118 70.61-30.714 47.209s-42.27 65.158-80.433 123.61l-1.749 2.692 117.399-22.592c109.1-18 186.212-6.088 253.512 16.912h-.005c1.096.2 2.192.5 3.287 1.098-84-2.8-400.883 137.987-519.183 221.187l-.1-.1z" fill="#00b27d" fill-rule="nonzero"/><path d="M422.15 285.968c1.35-.282 2.7-.568 4.05-.868 1.2-.3 2.4-.5 3.7-.8h.8c-1.1 2.2-2.3 4.4-3.4 6.5-1.1 2.1-2.1 4.2-3.2 6.2-1 2.1-2.1 4.1-3.1 6.2-.2.3-.3.6-.5.9-1 2.1-2.1 4.2-3.1 6.2-2 4.1-4 8.2-5.9 12.3-14.5 30.5-27.4 61.1-38.9 91.8 1.4-3.9 2.9-7.8 4.4-11.7-.1.2-.2.5-.3.7-.8 1.9-1.5 3.9-2.2 5.8l-1.5 3.9c-.125.325-.25.656-.375.991l-.75 2.018c-.125.335-.25.666-.375.991-.2.6-.4 1.1-.6 1.7-.7 1.8-1.3 3.5-2 5.3-.2.6-.4 1.2-.7 1.9-.7 2-1.5 4.1-2.2 6.1-.7 2-1.4 3.9-2.1 5.9l-3 8.7c-.8 2.3-1.6 4.7-2.4 7-2.5 7.6-5 15.2-7.4 22.8-.6 2-1.2 4-1.9 6-.6 1.9-1.2 3.9-1.8 5.8-.125.425-.25.844-.375 1.259l-.75 2.482c-.125.415-.25.834-.375 1.259-1 3.2-1.9 6.5-2.9 9.7-1 3.2-1.9 6.5-2.8 9.7-2.5 8.7-4.8 17.3-7 26-.225.825-.436 1.636-.643 2.443l-.414 1.614c-.207.807-.418 1.618-.643 2.443-.6 2.2-1.1 4.3-1.6 6.5-.7 2.8-1.4 5.6-2 8.4-3.1 12.9-6.1 25.9-8.8 38.9l-1.8 8.7c-.1.7-.3 1.3-.4 2l-1.2 5.7c-.2.7-.3 1.5-.4 2.2-.1.4-.2.8-.2 1.2-.6 2.9-1.1 5.8-1.7 8.7-.5 2.6-1 5.2-1.5 7.9-.5 2.6-1 5.2-1.5 7.9-1.4 7.9-2.8 15.7-4.1 23.6-.9 5.6-1.8 11.1-2.7 16.7-.1.9-.3 1.9-.5 2.8-.2 1.3-.4 2.6-.6 3.8-.1.4-.1.8-.2 1.2-.3 1.8-.5 3.7-.8 5.5-.3 2.2-.7 4.5-1 6.7-.3 2.2-.6 4.5-1 6.7v.3l-.1-.1c-32.5-32.9-31.8-138.9-12.4-245.4 18.7-101.6 41.993-154.473 43.993-157.373.1 0 55.007-14.027 78.907-19.127l2.7-.6c.9-.2 1.9-.4 2.8-.6 1.35-.3 2.7-.586 4.05-.868l2.7-.564zm393.251 202.347c-173.9-7.5-322.912 24.488-418.712 78.088 11.4-17.2 29.245-43.897 47.745-72.397l117.455-22.603c109.1-18 186.212-6.088 253.512 16.912zM811.7 94.718C559.129 113.847 316.233 204.422 91.366 361.746c18.2-43.6 395.734-321.628 451.934-327.328l-148.5 128.1c15.7-10 123.7-36.5 173.1-47.1 105.8-22.8 188.6-27.1 243.8-20.7z" fill="#009964" fill-rule="nonzero"/></svg>